<svg xmlns="http://www.w3.org/2000/svg" version="1.1" xmlns:xlink="http://www.w3.org/1999/xlink" xmlns:svgjs="http://svgjs.com/svgjs" width="1440" height="560" preserveAspectRatio="none" viewBox="0 0 1440 560"><g mask="url(&quot;#SvgjsMask1008&quot;)" fill="none"><rect width="1440" height="560" x="0" y="0" fill="rgba(10, 17, 40, 1)"></rect><path d="M837.28 583.06C997.2 525.37 1036.98 51.34 1257.22 48.18 1477.45 45.02 1553 305.8 1677.15 316.98" stroke="rgba(3, 93, 200, 0.58)" stroke-width="2"></path><path d="M832.84 666.52C968.76 648.44 1048.39 335.28 1269.62 334.82 1490.85 334.36 1587.35 521.14 1706.4 525.22" stroke="rgba(3, 93, 200, 0.58)" stroke-width="2"></path><path d="M407.13 608.01C562.25 603.81 671.32 387.47 983.59 377.89 1295.85 368.31 1402.85 131.32 1560.04 125.89" stroke="rgba(3, 93, 200, 0.58)" stroke-width="2"></path><path d="M479.13 582.75C597.34 568.58 664.95 305.15 864.72 303.3 1064.5 301.45 1057.52 373.3 1250.32 373.3 1443.11 373.3 1537.94 303.58 1635.91 303.3" stroke="rgba(3, 93, 200, 0.58)" stroke-width="2"></path><path d="M857.15 607.67C986.6 586.02 1027.31 284.96 1258.13 268.82 1488.95 252.68 1554.25 147 1659.11 145.62" stroke="rgba(3, 93, 200, 0.58)" stroke-width="2"></path></g><defs><mask id="SvgjsMask1008"><rect width="1440" height="560" fill="#ffffff"></rect></mask></defs></svg>